<svg xmlns="http://www.w3.org/2000/svg" viewBox="0 0 120 80" role="img" aria-label="OMNI">
  <defs>
    <linearGradient id="omni-snail-shell" x1="0.15" y1="0" x2="0.85" y2="1">
      <stop offset="0" stop-color="#ffffff"/>
      <stop offset="0.5" stop-color="#dcdfe3"/>
      <stop offset="1" stop-color="#a3a8b0"/>
    </linearGradient>
    <linearGradient id="omni-snail-body" x1="0" y1="0" x2="1" y2="0">
      <stop offset="0" stop-color="#7d838c"/>
      <stop offset="0.72" stop-color="#b3b8bf"/>
      <stop offset="1" stop-color="#d3d6db"/>
    </linearGradient>
  </defs>

  <!-- Eye stalks -->
  <g stroke="#838992" stroke-width="1.3" stroke-linecap="round" fill="none">
    <path d="M102.6 48.5 L99.6 32.5"/>
    <path d="M106.8 48.5 L110.8 34.2"/>
  </g>
  <circle cx="99.4" cy="31.4" r="1.6" fill="#737982"/>
  <circle cx="111.1" cy="33.1" r="1.6" fill="#737982"/>

  <!-- Body -->
  <path d="M4 68.6 C16 67.9 30 63.3 44 63.1 L88 63.1 C95 63.1 98.6 58 100.3 51.6 C101.5 46.6 108.7 46.1 109.9 51.1 C111.3 57.1 108.1 66.6 97.1 68.7 C80 70.7 30 70.7 4 68.6 Z"
        fill="url(#omni-snail-body)" stroke="#717780" stroke-width="0.6"/>

  <!-- Shell -->
  <circle cx="58" cy="38" r="27" fill="url(#omni-snail-shell)" stroke="#9aa0a8" stroke-width="0.9"/>
  <path d="M36 38 A22 22 0 0 1 80 38 A18.5 18.5 0 0 1 43 38 A15 15 0 0 1 73 38 A11.5 11.5 0 0 1 50 38 A8 8 0 0 1 66 38 A4.5 4.5 0 0 1 57 38"
        fill="none" stroke="#737982" stroke-width="1.25" stroke-linecap="round"/>
  <path d="M36.4 27.5 A24.5 24.5 0 0 1 50.5 14.6" fill="none" stroke="#ffffff" stroke-width="1.6" stroke-linecap="round" opacity="0.85"/>
</svg>
